<svg xmlns="http://www.w3.org/2000/svg" height="158.57" width="279.25"><path fill="#FFF" d="M43.465 28.964c-3.7.258-13.184 5.864-13.58 8.538-.213 1.44 2.815-1.16 4.347-.787 1.828.445 3.207 2.018 3.487.455 1.045-5.836 7.423-8.323 5.746-8.206z"/><path fill="#ee7000" d="M50.55 75.581L47.5 87.77l-4.577 10.663 2.615 2.612 10.678-4.135 6.537-4.57 3.486 4.57 5.448 11.099 6.755 12.404 7.845 9.794 9.588 3.7 8.063.434 6.538-8.487 2.179-2.83h5.23l1.525-1.74.872-2.394-1.308-3.047-.218-2.176 3.705-.435.871-3.265-1.96-3.264 1.525-4.135 3.05-2.176 2.397-3.7-.436-4.788-1.743-1.74-3.486-.436-3.27-1.088-2.832-1.959.872-3.047 1.09-7.399 3.704 3.482 7.627 5.006 8.063.217 1.743-1.74-3.923-3.483-4.14-6.093 8.063-2.177 7.627-4.787 5.665-8.705 1.308-9.358-3.05-11.1-4.36-6.745-8.716-7.182-9.37 1.088-8.934 2.612-4.576-.218 1.307 2.176 6.32 1.088 5.665.435 7.627 3.047 4.358 8.488-.435 6.964-1.308 5.658-3.486 4.57-4.577.653-6.319-3.264-6.319-7.4-8.934-7.399-7.845-2.176-7.191 2.394-3.27 1.741-5.229-3.264-11.332-1.524-6.537 1.959-5.884 4.57-4.576 5.658-5.23 6.311-5.447 3.265-7.845-.653-4.576-4.135v-7.181l1.96-6.53 3.487-5.44 4.359-4.135 7.19-3.482 7.41-.217 8.063.217 5.665-2.176-6.537-1.741-6.319-2.83-6.755-1.74-7.627 1.088-10.242 3.917-7.41 5.223-5.229 9.358-1.307 9.575-.218 5.441 1.525 6.964 3.269 6.529 5.883 6.31 7.845 1.96 6.973-.871z"/><path d="M52.701 20.002c-14.692.013-34.984 9.819-32.492 34.014 2.666 25.88 20.46 27.667 27.397 27.361-1.426 6.466-2.584 12.31-7.908 17.989-7.465 7.964 15.912 5.118 23.74-3.352-.725 3.87-1.507 9.42 1.613 14.285.581.906.946-2.411 1.674-2.144.68.25-.022 7.635 3.779 9.844.704.41 1.242-1.532 1.694-2.267 1.342-2.18.553 8.923 6.148 11.163.815.326.976-1.25 1.554-1.88 6.212 14.337 32.415 19.578 31.234 3.827-.564-3.567 2.633-5.631 5.453-4.317 2.82 1.315 7.332-4.32 3.385-8.825 3.631-1.409 7.745-4.58 4.79-6.76-4.142-2.887.451-5.64 3.105-8.354 4.36-4.459 1.557-12.681-2.447-11.545-3.325.944-5.917-1.17-7.236-2.557.412-2.374 1.469-4.78 1.393-7.788 10.11 13.777 24.448 7.805 24.267 5.089-.16-2.385-4.493.812-9.812-8.407 11.089-1.244 14.564-3.811 20.439-17.644 6.314-14.869-8.227-39.898-23.531-34.253-8.03 2.962-11.911 3.429-17.063 3.549-1.35.031.849 3.057 4.437 3.844 5.234 1.148 12.228-.888 18.21 4.953 6.876 6.715 3.187 26.817-5.852 23.763-9.04-3.053-11.298-14.733-22.996-19.512-7.64-3.122-13.747.41-17.066 3.236a23.943 23.943 0 00-1.81-1.511c-9.837-7.435-22.26-4.873-31.903 9.294-8.043 11.816-17.3 10.028-20.073 4.247-4.443-9.264 7.047-26.953 23.93-24.696 3.661.455 13.25.262 13.422-3.4.071-1.5-3.743.416-9.7-4.165-2.602-2-6.877-3.085-11.775-3.08zm29.947 34.573c9.685-.082 15.25 5.194 18.921 4.912 3.04-.234 5.445-2.423 6.876-2.836C116.95 54.196 124.8 60.77 128 68.986c3.972 10.205 7.303 13.668 9.602 14.19 1.3.295-4.173 2.319-9.043-3.782-1.228-1.538-1.482 2.637-3.919-.313-3.267-3.957-3.729-9.27-5.14-13.324-.87-2.502-3.36-5.219-3.9-4.541-.72.906 2.166 5.53 1.655 7.943-2.776-2.31-6.441-.57-7.44-.632-.878-.055-1.233-1.558-1.488-1.399-.336.21-.089 1.022-.272 2.437-.098.75-.662 1.282-.457 2.026.563 2.05 5.04 6.56 6.308 10.879 1.264 4.298 5.134 10.218 9.92 8.633 3.727-1.235 4.884 6.293 1.5 9.109-3.384 2.816-7.402 5.138-4.227 8.165 2.068 1.971 2.138 4.896-2.069 4.505-5.78-1.18-12.063 2.6-16.165 2.395-5.452-.376-10.153-6.71-11.28-9.15-1.129-2.441-1.318 1.22 1.126 4.599 2.444 3.38 8.837 9.294 17.297 5.914 8.46-3.38 11.278 2.44 9.022 4.506-2.256 2.065-11.28-.376-15.228 2.628-2.646 2.014-3.57 6.008-1.34 9.225-16.109-1.64-20.52-15.306-22.808-30.725.185-2.718-3.053 2.163-3.466 3.61-.684 2.393-3.538-11.378-2.896-14.157 1.102-4.767-1.635-1.793-2.788.514-1.009 2.02-1.782-3.27-.785-5.22 2.58-5.048 2.772-6.051 3.627-16.946.694-8.847 5.316-7.753 6.3-8.821.597-.649.08-1.213-2.537-.752-3.196.563-8.838 3.192-8.838 13.142 0 4.99-3.38 10.499-4.384 9.249-1.576-1.961-2.911 6.857-3.71 7.458-.798.601-.865-2.654-2.52-.5-1.992 2.591-2.737 4.764-8.093 7.076-8.008 3.456 1.35-4.268 1.883-11.36.58-7.696 2.95-23.328 17.95-26.663 4.148-.922 9.162-4.294 13.25-4.329zm30.554 15.727c1.632.154 3.538.329 4.328 1.863 1.362 2.645.533 6.155-.191 11.157-.38 2.625-1.437.527-2.557-3.711-1.281-4.85-4.938-5.447-5.325-7.75-.271-1.617 1.771-1.746 3.745-1.56z"/><path d="M93.253 73.3c0 1.556-1.263 2.817-2.82 2.817s-2.82-1.26-2.82-2.816 1.263-2.816 2.82-2.816 2.82 1.26 2.82 2.816z"/><path d="M87.023 77.826c1.05.157.753-.251.446-.622-3.828-4.62 1.207-8.535 6.95-5.297.792.446 2.352-.99.748-2.315-.227-.188-.289-3.142-.747-3.311-.458-.17-.423 2.619-1.044 2.55-2.953-.728-7.448-.258-8.809 2.942-.706 1.66-.458 4.507 2.456 6.053zm25.19 17.48s-7.171-8.078-14.127-5.168c-6.956 2.91-3.278 10.885-2.057 10.885-.718-3.389-.836-8.35 4.042-9.669 4.23-1.033 9.194 4.58 10.904 6.008 1.566 1.308 3.001-.815 1.238-2.056z"/><path d="M105.725 100.652c.176-.887-2.111-6.482-6.115-5.406-4.994 1.34-.653 5.963 1.777 4.306.733-.5.93-.87 1.34-.77 1.157.28 1.402 1.66 1.464 2.493.094 1.273 1.415-.02 1.534-.623zM117.222 73.3c0 1.556-1.263 2.817-2.82 2.817s-2.82-1.26-2.82-2.816 1.262-2.816 2.82-2.816 2.82 1.26 2.82 2.816z"/><path d="M92.845 72.038a1.079 1.079 0 11-2.158-.001 1.079 1.079 0 012.158.001zm24.003.002a1.079 1.079 0 10-2.158.002 1.079 1.079 0 002.158-.002z" fill="#FFF"/><path fill="#2e3436" d="M54.134 23.114a28.79 28.79 0 00-4.05.328c3.616 2.313-.624 2.206-1.95 2.284-8.238.482-14.344 4.035-13.09 3.737 2.85-.677 7.663.286 4.302 1.446-7.24 2.497-13.173 4.287-15.24 18.876-1.174 8.278 4.605 19.232 4.432 17.696-.654-5.801 1.768-8.711 2.344-6.066 1.452 6.66 4.876 11.588 7.666 12.54-1.823-3.896-2.419-9.859.28-6.958 3.429 3.686 6.18 5.426 11.436 5.203 0 0 6.597-11.78 16.692-15.035 7.42-2.393-4.83-2.566 2.702-4.333 5.022-1.179 11.113-.903 9.195-1.635-5.698-2.175-.036-3.051 3.837-2.6 12.426 1.45 16.6 12.3 23.659 6.703 1.296-1.027 3.023-3.353 4.75-3.372 1.727-.018-.874 2.282 2.455 1.836 5.015-.672 2.908.839 3.742 1.006 3.1.623 6.131 3.122 6.131 3.122S111.02 36.894 100.21 44.003c-1.799 1.183-1.028 1.796.367 1.133 2.128-1.013 7.175-.134 3.453.397-5.063.722-5.979 4.383-5.979 4.383-21.311-17.808-33.081-3.882-39.42 4.859-4.176 6.24-13.38 11.398-19.469 6.94-4.957-3.629-2.26 3.25-4.256.596-4.633-6.163-.748-16 1.682-19.75 3.211-4.957 6.104-8.066 9.319-10.005 3.214-1.94-2.836-3.46.152-3.733 2.987-.273 10.431-1.313 17.922.221 1.265.26 4.774.432 6.616-.558-5.466-.813-7.939-5.414-16.462-5.372zm73.222 37.633s11.863 7.214 14.871-6.738c.451-2.091 2.471.552 3.207 2.091.711 1.485 2.047-2.241.834-5.217-1.074-2.636-2.88-7.581-1.895-6.593 2.256 2.266 2.513 1.178 1.662-1.559-.85-2.737-2.81-7.124-9.773-10.395-3.262-1.532-6.253-2.329-9.542-2.493-3.289-.165-6.875.303-8.138-.826 2.791 0 10.181-.795 13.56-2.39 8.631-4.073 31.849 15.846 17.562 37.036-2.292 3.4.617-4.04-1.246-2.75-2.012 1.394-3.642 6.202-9.233 7.677-1.937.51 1.229-1.279.672-3.42-.425-1.636-6.77 1.977-12.541-4.424z"/><path fill="#FFF" d="M208.115 21.372c-3.203 0-3.74.04-5.869.597-2.626.696-4.158 1.571-5.949 3.382-.915.895-1.373 1.472-1.81 2.208-1.094 1.89-1.81 4.04-2.248 6.944-.24 1.412-.26 1.93-.24 5.431 0 3.681.439 14.902.697 18.264.18 2.229.1 2.468-1.77 5.074a82.806 82.806 0 00-2.03 2.964c-1.253 1.93-3.024 4.417-4.476 6.327-2.686 3.462-3.363 4.735-5.054 9.331-1.631 4.496-2.626 6.725-5.033 11.4-1.234 2.348-1.552 3.343-1.612 5.014-.08 1.432.12 3.422.338 3.78.18.239.398.298.836.18-.06.059-.1.099-.14.118-.696.458-1.492 1.433-1.989 2.666-.02.02-.02.06-.04.08-.179.279-.378.756-.617 1.492-.716 2.03-1.313 2.925-2.387 3.502-.915.497-1.73.617-4.118.617-2.467 0-3.005.119-3.74.756-1.314 1.114-1.513 3.322-.617 6.386.815 2.766.775 4.039-.279 7.143-.577 1.71-.657 2.069-.657 2.805 0 .557.06.975.18 1.233.258.538 1.074 1.194 1.87 1.532.895.339 5.391 1.453 8.614 2.09 4.994 1.014 6.785 1.551 11.42 3.402 4.119 1.631 5.87 2.228 7.262 2.447.657.1 2.01-.02 2.627-.259.736-.259 1.432-.736 2.964-2.03 2.706-2.267 4.178-2.984 7.202-3.461 1.134-.18 2.169-.2 10.823-.2 5.253 0 9.888.04 10.306.1.975.12 1.353.438 2.169 1.87 1.253 2.249 2.785 3.244 5.57 3.661 1.314.2 3.562.22 4.597.06 2.268-.378 3.402-1.054 5.968-3.62 2.985-3.005 5.77-4.895 9.69-6.606 1.989-.876 2.884-1.373 5.232-2.965 2.885-1.95 3.442-2.566 3.442-3.84 0-1.333-.716-2.168-3.363-3.919-2.526-1.671-3.66-2.686-4.715-4.238-.736-1.094-.995-1.93-1.094-3.561-.04-.756-.12-1.273-.219-1.592-.1-1.134-.557-2.427-1.373-2.845-1.134-.597-1.532-.418-1.91-.179 1.274-1.432 1.691-2.109 2.11-3.342.735-2.189.576-4.636-.697-11.002-1.472-7.402-3.98-12.694-9.152-19.339-3.283-4.238-4.616-6.347-7.819-12.355-1.592-3.004-2.05-4.039-2.427-5.65-.557-2.328-.816-4.417-1.234-10.366-.398-5.55-.676-7.839-1.194-9.769-1.372-5.252-5.49-9.231-11.24-10.883-2.448-.696-3.502-.835-6.805-.835z"/><path d="M220.333 54.202c0 2.775-3.306 3.361-4.909 4.356-1.492 1.382-10.083 5.285-12.36 5.285-3.66-.774-8.115-6.236-8.69-9.862 0-2.112 2.687-3.803 4.19-5.185 1.493-1.382 3.217-2.687 6.158-2.134 2.278 0 5.838 1.084 7.33 2.466 2.985.995 8.28 1.636 8.28 5.074zm-60.188 74.151c3.4 1.548 11.321 3.527 14.107 3.859 1.869.774 14.207 3.648 17.048 3.648 4.212-2.985 4.909-7.507 3.726-12.084-5.252-8.48-9.309-19.59-19.126-23.416-.984.486-1.792 1.802-2.145 2.023-.708.453-1.493 1.437-1.99 2.665-.52 1.282-.995 2.852-1.575 5.14-1.134 2.278-5.765.222-8.937 1.88-1.157 3.505.817 12.15-1.108 16.285zm91.387-12.99c2.123 1.735 5.45 3.029 6.954 5.914-2.863 3.417-5.329 4.622-8.955 6.347-4.975 2.365-8.093 4.588-10.37 6.135-2.278 1.99-7.562 3.207-9.961 2.875-1.515-.995-3.218-13.079-2.665-17.026 0-2.1-2.576-10.514 1.548-15.644 3.991-.763 7.418 2.886 9.95 5.373 2.09-1.404 5.395-3.56 7.894-4.101.818-.188.851-1.04 2.565-.144.818.431 1.293 1.78 1.382 2.93.144 1.857.332 5.793 1.658 7.34z" fill="#f8bf11"/><path d="M188.658 138.513c-1.393-.22-3.15-.773-7.263-2.432-4.644-1.88-6.424-2.322-11.421-3.427-3.217-.553-7.73-1.714-8.61-2.068-.797-.32-1.625-.984-1.879-1.525-.118-.243-.18-.675-.18-1.227 0-.752.08-1.084.66-2.798 1.051-3.117 1.102-4.389.284-7.153-.906-3.062-.694-5.273.611-6.39.738-.63 1.275-.74 3.737-.74 2.393 0 3.201-.122 4.127-.63 1.067-.587 1.668-1.471 2.375-3.505.454-1.316.752-1.836 1.04-1.836.232 0 .43.575.43 1.272 0 .619-.696 3.228-1.039 3.902-.364.73-.862 1.294-1.436 1.626-1.07.63-3.132.796-5.394.453-1.445-.232-2.274-.177-2.827.155-.818.497-.952 1.614-.358 2.996 1.15 2.664 1.37 3.24 1.613 4.135.289 1.072.335 2.012.154 3.128-.18 1.106-.498 1.802-1.436 3.118-.485.686-.928 1.415-.987 1.636-.165.597.079 1.05.738 1.393.56.277 8.537 2.344 14.173 3.616 1.736.442 4.898 1.216 7.02 1.769 2.134.552 4.346.995 4.92 1.105 1.78.221 3.428 0 4.567-.663 1.58-.995 2.686-3.284 2.819-5.948.088-1.758-.299-3.339-1.327-5.384-.785-1.57-1.172-2.178-4.898-7.806-6.578-9.906-9.43-13.211-11.862-13.72-.785-.155-1.305-.066-2.355.41-1.006.452-1.35.475-1.592.11-.233-.354-.42-2.333-.354-3.77.077-1.67.398-2.665 1.614-5.03 2.41-4.666 3.394-6.9 5.041-11.388 1.692-4.6 2.377-5.87 5.042-9.342a104.45 104.45 0 004.477-6.313 131.27 131.27 0 012.046-2.974c1.857-2.61 1.946-2.852 1.769-5.075-.266-3.35-.708-14.582-.708-18.253-.011-3.493.011-4.024.232-5.44.454-2.891 1.161-5.062 2.267-6.941.42-.734.895-1.315 1.79-2.219 1.792-1.806 3.34-2.673 5.96-3.359 2.134-.558 2.675-.614 5.87-.61 3.295.002 4.345.132 6.8.838 5.749 1.651 9.872 5.634 11.254 10.877.509 1.935.785 4.235 1.183 9.785.42 5.937.675 8.026 1.239 10.37.376 1.592.829 2.642 2.42 5.638 3.207 6.015 4.534 8.115 7.817 12.339 5.174 6.655 7.673 11.94 9.154 19.347 1.272 6.368 1.427 8.812.697 11.012-.442 1.326-.873 1.99-2.388 3.66-3.184 3.526-6.733 5.737-9.165 5.737-2.211 0-4.235-1.503-5.683-4.234-.674-1.504-.586-2.709-2.52-2.278-.94.255-1.714 1.393-1.947 2.864-.176 1.05-.143 5.074.045 6.08.077.454.342 1.802.564 2.985.398 2.046.42 2.267.42 4.367 0 1.935-.045 2.521-.365 4.644-.299 1.99-.354 2.675-.32 3.759.043 1.26.066 1.382.441 2.167.454.995 1.449 2.1 2.311 2.653 1.902 1.216 4.555 1.327 6.788.221.63-.331 1.548-.995 3.096-2.21 2.51-2.035 4.378-3.329 5.793-4.047.542-.266 1.846-.763 2.897-1.106 4.356-1.404 6.346-2.244 7.451-3.162 1.316-1.072 1.946-2.233 1.714-3.107-.299-1.083-1.548-1.857-4.102-2.52-1.923-.509-2.388-.741-3.173-1.603-.696-.763-1.238-1.858-1.636-3.317-.387-1.426-.442-3.737-.11-4.643.232-.642.464-.94.73-.94.309 0 .464.542.552 1.99.11 1.614.365 2.465 1.106 3.549 1.05 1.559 2.166 2.565 4.698 4.245 2.643 1.747 3.372 2.587 3.372 3.925 0 1.271-.564 1.89-3.438 3.825-2.355 1.592-3.24 2.1-5.23 2.963-3.924 1.714-6.71 3.615-9.706 6.6-2.565 2.543-3.682 3.317-5.97 3.649-1.029.11-3.273.11-4.589-.11-2.786-.332-4.3-1.327-5.572-3.65-.807-1.436-1.183-1.768-2.156-1.879-.42 0-5.063-.11-10.326-.11-8.645 0-9.685.11-10.801.221-3.03.553-4.522 1.216-7.22 3.427-1.525 1.327-2.222 1.77-2.963 2.1-.608.222-1.967.333-2.62.222zm9.972-7.13c.244-.21.609-.697.819-1.084.331-.62.376-.807.409-1.758.077-1.747-.299-2.73-1.537-4.035-.851-.896-.973-1.283-.487-1.504.454-.199 1.029.055 2.057.918 1.946 1.647 3.095 1.924 7.34 1.835 4.567-.11 7.054-.586 9.564-1.846 1.625-.818 2.698-1.747 4.058-3.55.961-1.26 1.393-1.69 1.934-1.912.896-.376 1.371.354 1.35 2.09-.012.807-.1 1.315-.465 2.664-.995 3.593-1.305 5.617-1.028 6.645.165.597.685 1.05 1.16 1.006.332-.033.343-.055.432-.697.044-.365.232-1.603.42-2.764.177-1.15.398-2.642.497-3.316.232-1.747.41-7.165.42-13.046.011-5.075.011-5.086.277-5.86.21-.597.398-.895.829-1.326.674-.664 1.305-.907 2.73-1.007l.952-.077.132-.674c.32-1.537 1.238-2.41 3.052-2.897.586-.155 1.171-.21 2.432-.21 1.824 0 2.333.11 3.98.907.74.353 1.382.475 1.382.265 0-.166-.896-1.006-1.614-1.515a7.998 7.998 0 00-1.438-.796c-.563-.232-.773-.376-.796-.541-.022-.133.144-.874.365-1.659.642-2.322.852-3.792.863-6.003.022-3.637-.62-6.048-2.731-10.127-1.957-3.781-4.024-6.556-5.66-7.595-.476-.288-1.04-.487-1.04-.365 0 .044.398.63.874 1.315 2.255 3.195 4.599 7.275 5.594 9.763.807 1.99 1.415 4.687 1.603 7.142.32 4.024-.774 7.462-2.654 8.302-.375.177-.796.244-1.713.266-1.46.055-1.659-.022-2.046-.796l-.276-.553-.066-4.422c-.122-7.53-.476-8.812-4.423-15.943-1.216-2.189-1.459-2.764-1.979-4.754-1.06-4.09-2.09-6.49-3.703-8.656-2.466-3.295-2.786-4.666-1.802-7.706.63-1.98.619-2.996-.045-3.67-.486-.498-.862-.675-3.084-1.383-3.372-1.072-4.931-2.034-5.362-3.305-.431-1.25-.122-3.284.652-4.29.553-.73 1.26-1.04 2.344-1.04.719.012 1.006.067 1.504.288.762.365 1.37.885 1.68 1.47.332.63.32 2.123-.022 3.218-.564 1.78-.542 1.592-.144 1.946.719.64 1.858.696 2.355.1.431-.51.564-1.029.62-2.488.066-1.592-.1-2.654-.753-4.655-.895-2.742-1.79-3.538-4.5-3.98-2.022-.332-3.128-.066-4.145.984-1.592 1.658-2.388 4.3-2.068 6.954.177 1.47.144 1.537-.685 1.272-.74-.233-2.366-.42-3.306-.387-1.006.044-1.094-.045-1.094-1.172-.011-4.588-1.393-7.087-3.925-7.065-1.758 0-3.184 1.338-3.715 3.46-.21.83-.166 3.207.067 4.589.475 2.72 1.503 4.08 2.31 3.018.332-.453.62-1.028.62-1.216 0-.078-.255-.255-.553-.398-.332-.155-.63-.398-.763-.62-.63-1.005-.94-2.808-.675-3.77.343-1.216 2.012-1.967 3.162-1.426.973.465 2.012 2.61 1.902 3.958-.089 1.073-.288 1.404-1.26 2.123-.487.354-1.272.995-1.758 1.426s-1.084.929-1.327 1.106c-1.238.895-1.935 1.946-1.935 2.94 0 .653.265 1.007 1.095 1.416.652.331 1.238.906 1.857 1.813.83 1.194 1.813 1.57 4.069 1.559 2.752-.011 5.218-.597 9.84-2.322 2.509-.94 3.205-1.238 3.35-1.46.408-.596.884-1.016 1.171-1.016.387 0 .73.364.73.762 0 .675-1.04 1.228-4.644 2.455a44.003 44.003 0 00-3.648 1.47c-1.902.907-2.432 1.095-3.682 1.338-1.028.199-3.405.221-4.71.044-1.06-.144-1.702-.066-1.647.21.055.288 2.51 2.2 3.074 2.41.796.277 2.366.332 3.383.1 1.537-.332 6.39-2.421 8.8-3.77.807-.453 1.26-.641 1.548-.641.486-.011.862.298.862.685 0 .42-.818 1.139-1.713 1.515-1.581.641-1.913.818-3.483 1.813-2.145 1.37-3.084 2.056-4.5 3.295-1.514 1.315-1.945 1.492-3.626 1.514-1.338.011-1.747-.121-2.62-.873-.686-.586-2.322-2.62-2.786-3.472-.487-.884-1.57-2.111-1.858-2.111-.187 0-.21.044-.53 1.437-.221.995-1.04 2.874-2.366 5.472-1.592 3.13-1.67 3.406-1.67 6.69 0 2.741.067 2.509-1.271 4.366-1.636 2.3-4.179 8.303-4.787 11.332-.464 2.267-.785 6.125-.697 8.292.067 1.725-.022 2.233-.43 2.488-.42.265-.918-.011-1.947-1.028-1.614-1.626-2.133-2.974-2.122-5.55.01-1.637.154-2.897.475-4.113.276-1.04.288-1.338.033-1.283-.265.045-.862 1.272-1.15 2.366-.176.653-.243 1.327-.287 2.698-.044 1.68-.033 1.924.232 3.095a10.39 10.39 0 001.835 3.992c1.338 1.769 8.115 7.783 12.626 11.221 1.084.818 2.289 1.847 2.687 2.278 2.388 2.587 1.923 4.953-1.338 6.777-.509.287-.929.542-.929.564s.42.608.929 1.282c1.868 2.52 2.952 4.367 3.328 5.66.254.852.243 2.08-.033 2.864-.111.354-.177.641-.133.641s.276-.22.52-.387zm1.913-82.322c-.343-.652.299-1.216 1.393-1.216.387 0 .73.044.763.11.077.133-.298.332-.63.332-.2 0-.31.111-.476.476-.176.387-.276.475-.574.497-.266.022-.376-.022-.476-.199zm6.556-.475c-.641-.232-1.139-.553-1.017-.675.033-.033.41-.088.83-.132.994-.089 1.37.055 1.37.497 0 .221-.077.376-.21.454-.122.055-.232.11-.254.1-.011 0-.343-.111-.719-.244zm-23.018 30.99c1.061-1.095 1.36-1.648 1.294-2.433-.034-.542-.244-.73-.686-.62-.32.078-.497.41-.785 1.416-.121.486-.32.807-.774 1.316-.608.685-.718.94-.475 1.183.254.254.464.132 1.426-.863zm42.52-18.663c.233-.144.697-1.282.697-1.714 0-.342-.066-.497-.343-.751-.188-.177-.387-.321-.442-.321s-.486-.177-.962-.409a5.768 5.768 0 01-1.58-1.106c-.399-.376-.786-.696-.852-.696s-.155.133-.199.287c-.122.509.055 1.294.52 2.223.398.829.541.995 1.459 1.746.984.807 1.349.962 1.703.741zm-26.6-14.804c.133-.342.1-.608-.243-1.724-.144-.487-.354-.896-.575-1.139-.32-.343-.376-.365-.63-.232-.365.199-.332.641.1 1.127.32.365.597 1.062.73 1.858.088.508.442.575.618.11zm15.578-.31c.243-.287.066-1.658-.265-2.166-.343-.52-1.14-.995-1.77-1.061-.42-.056-.497-.023-.618.188-.155.287-.078.375.464.541.685.221 1.316 1.161 1.481 2.2.067.387.122.465.321.465a.57.57 0 00.387-.166zm.74-14.891c.797-.55.852-.574 1.615-.594.973-.025 1.183-.107 1.183-.45 0-.534-1.835-2.161-2.61-2.305-.773-.146-1.05.274-1.204 1.847-.067.589-.144.834-.398 1.15-.343.434-.398.689-.177.908.22.226.696.06 1.592-.556z"/></svg>